<svg width="24" height="24" viewBox="0 0 24 24" fill="none" xmlns="http://www.w3.org/2000/svg">
<g clip-path="url(#clip0_87_143)">
<path d="M18.1406 7.5385C18.0879 7.19777 18.0288 6.82642 17.9696 6.44882C17.7065 4.8128 17.404 3.02313 17.302 2.76547C17.1081 2.27419 16.4768 0.889956 14.2376 1.6758C13.5306 1.92432 13.3925 2.1761 12.3667 2.05029C11.5908 1.9551 11.0942 1.3965 10.0157 1.01581C7.77657 0.223923 6.79997 1.50692 6.606 1.99804C6.50403 2.25586 6.20152 4.81285 5.93846 6.44887C5.87602 6.82042 5.82018 7.18552 5.76758 7.52332C7.44119 7.83931 9.54883 8.06341 11.9985 8.06341C14.4053 8.06333 16.4834 7.84858 18.1406 7.5385Z" fill="black"/>
<path d="M20.4322 9.60123C20.0705 9.50913 19.6759 9.42317 19.2616 9.3434C19.1794 9.30964 19.0972 9.27903 19.015 9.24821H19.0118C16.9041 9.68409 14.4183 9.9051 11.9983 9.9051C9.58819 9.9051 7.11228 9.68409 5.01114 9.25441C4.95203 9.27589 4.88954 9.30046 4.82705 9.32503C4.42914 9.40169 4.04775 9.48146 3.69925 9.56747L3.6926 9.57057C1.71325 10.0617 0.5 10.7278 0.5 11.4645C0.5 12.9747 5.64576 14.2024 12.0016 14.2024C18.3508 14.2024 23.5 12.9746 23.5 11.4645C23.5 10.7432 22.3327 10.0923 20.4322 9.60123Z" fill="black"/>
<path d="M22.9203 18.7562H22.691C22.4071 16.54 20.3896 14.8216 17.9393 14.8216C15.6623 14.8216 13.7613 16.3058 13.2739 18.2932L12.1771 17.7585C12.0664 17.7048 11.9335 17.7048 11.8228 17.7585L10.726 18.2932C10.2394 16.3058 8.33756 14.8216 6.06056 14.8216C3.60962 14.8216 1.59281 16.5406 1.30819 18.7562H1.07891C0.761219 18.7562 0.503906 18.9964 0.503906 19.293C0.503906 19.5889 0.761219 19.8291 1.07891 19.8291H1.30819C1.59281 22.0454 3.60962 23.7637 6.06056 23.7637C8.70556 23.7637 10.8503 21.7622 10.8503 19.2923C10.8503 19.2091 10.8417 19.1279 10.8367 19.0454L11.9996 18.4784L13.1625 19.0454C13.1575 19.1273 13.1489 19.2091 13.1489 19.2923C13.1489 21.7615 15.2936 23.7637 17.9386 23.7637C20.3888 23.7637 22.4057 22.0454 22.6903 19.8291H22.9196C23.2373 19.8291 23.4946 19.5889 23.4946 19.2923C23.4946 18.9957 23.2373 18.7555 22.9196 18.7555L22.9203 18.7562ZM6.06056 23.0485C3.84178 23.0485 2.037 21.3636 2.037 19.2923C2.037 17.221 3.84178 15.5362 6.06056 15.5362C8.27934 15.5362 10.0841 17.221 10.0841 19.2923C10.0841 21.3636 8.27934 23.0485 6.06056 23.0485ZM17.9386 23.0485C15.7198 23.0485 13.9151 21.3636 13.9151 19.2923C13.9151 17.221 15.7198 15.5368 17.9386 15.5368C20.1574 15.5368 21.9622 17.2217 21.9622 19.2923C21.9622 21.363 20.1574 23.0485 17.9386 23.0485Z" fill="black"/>
</g>
<defs>
<clipPath id="clip0_87_143">
<rect width="23" height="23" fill="white" transform="translate(0.5 0.763748)"/>
</clipPath>
</defs>
</svg>
