<svg width="11" height="11" viewBox="0 0 11 11" fill="none" xmlns="http://www.w3.org/2000/svg">
<circle cx="5.5" cy="5.5" r="5.5" fill="#F9FF3D"/>
<g clip-path="url(#clip0_87_1542)">
<path d="M8.5625 4.5L7.9375 8.25H7.3125M8.5625 4.5L6.84375 5.90625M8.5625 4.5C8.82137 4.5 9.03125 4.29013 9.03125 4.03125C9.03125 3.77237 8.82137 3.5625 8.5625 3.5625C8.30362 3.5625 8.09375 3.77237 8.09375 4.03125C8.09375 4.29013 8.30362 4.5 8.5625 4.5ZM5.75 4.1875L4.65625 5.90625M5.75 4.1875L6.34659 5.125M5.75 4.1875C6.00887 4.1875 6.21875 3.97763 6.21875 3.71875C6.21875 3.45987 6.00887 3.25 5.75 3.25C5.49112 3.25 5.28125 3.45987 5.28125 3.71875C5.28125 3.97763 5.49112 4.1875 5.75 4.1875ZM2.9375 4.5L3.5625 8.25H5.75M2.9375 4.5L3.875 5.26703M2.9375 4.5C3.19638 4.5 3.40625 4.29013 3.40625 4.03125C3.40625 3.77237 3.19638 3.5625 2.9375 3.5625C2.67862 3.5625 2.46875 3.77237 2.46875 4.03125C2.46875 4.29013 2.67862 4.5 2.9375 4.5Z" stroke="#F8AB1D" stroke-width="0.5" stroke-linecap="round" stroke-linejoin="round"/>
</g>
<defs>
<clipPath id="clip0_87_1542">
<rect width="7.5" height="7.5" fill="white" transform="translate(2 2)"/>
</clipPath>
</defs>
</svg>
