<svg width="9" height="10" viewBox="0 0 9 10" fill="none" xmlns="http://www.w3.org/2000/svg">
<path d="M4.50007 8.25C6.57112 8.25 8.25007 6.57105 8.25007 4.5C8.25007 2.42893 6.57112 0.75 4.50007 0.75C2.429 0.75 0.750073 2.42893 0.750073 4.5C0.750073 5.09989 0.890931 5.66685 1.14137 6.16969C1.20793 6.3033 1.23008 6.45604 1.19149 6.60023L0.544504 7.95307C0.447544 8.31544 0.779066 8.64694 1.14144 8.55L2.39985 7.80859C2.54405 7.77 2.69678 7.79216 2.8304 7.85869C3.33321 8.10915 3.90019 8.25 4.50007 8.25Z" stroke="black" stroke-width="0.8"/>
<g clip-path="url(#clip0_87_1558)">
<path d="M6.375 3.66668L5.95833 6.16668H5.54167M6.375 3.66668L5.22917 4.60418M6.375 3.66668C6.54758 3.66668 6.6875 3.52677 6.6875 3.35418C6.6875 3.18159 6.54758 3.04168 6.375 3.04168C6.20242 3.04168 6.0625 3.18159 6.0625 3.35418C6.0625 3.52677 6.20242 3.66668 6.375 3.66668ZM4.5 3.45834L3.77083 4.60418M4.5 3.45834L4.89773 4.08334M4.5 3.45834C4.67258 3.45834 4.8125 3.31843 4.8125 3.14584C4.8125 2.97325 4.67258 2.83334 4.5 2.83334C4.32742 2.83334 4.1875 2.97325 4.1875 3.14584C4.1875 3.31843 4.32742 3.45834 4.5 3.45834ZM2.625 3.66668L3.04167 6.16668H4.5M2.625 3.66668L3.25 4.17803M2.625 3.66668C2.79759 3.66668 2.9375 3.52677 2.9375 3.35418C2.9375 3.18159 2.79759 3.04168 2.625 3.04168C2.45241 3.04168 2.3125 3.18159 2.3125 3.35418C2.3125 3.52677 2.45241 3.66668 2.625 3.66668Z" stroke="black" stroke-width="0.4" stroke-linecap="round" stroke-linejoin="round"/>
</g>
<defs>
<clipPath id="clip0_87_1558">
<rect width="5" height="5" fill="white" transform="translate(2 2)"/>
</clipPath>
</defs>
</svg>
