<svg width="19" height="23" viewBox="0 0 19 23" fill="none" xmlns="http://www.w3.org/2000/svg">
<path d="M6 8.875H6.01012M12.75 8.875H12.7601M1.5 8.875C1.5 4.52576 5.02576 1 9.375 1C13.7242 1 17.25 4.52576 17.25 8.875V21.25L16.3307 20.6371C15.4559 20.0539 15.0186 19.7624 14.5556 19.6801C14.1474 19.6075 13.7271 19.6491 13.341 19.8003C12.9032 19.9718 12.5315 20.3435 11.7881 21.0869C11.698 21.177 11.552 21.1769 11.4618 21.0869C10.9544 20.5808 10.6741 20.3147 10.374 20.166C9.74456 19.854 9.00544 19.854 8.376 20.166C8.07585 20.3147 7.79561 20.5808 7.28824 21.0869C7.19801 21.1769 7.05196 21.177 6.96187 21.0869C6.21851 20.3435 5.84682 19.9718 5.40903 19.8003C5.02296 19.6491 4.60261 19.6075 4.19439 19.6801C3.73146 19.7624 3.29409 20.0539 2.41937 20.6371L1.5 21.25V8.875Z" stroke="black" stroke-width="2" stroke-linecap="round" stroke-linejoin="round"/>
</svg>
