<svg width="28" height="27" viewBox="0 0 28 27" fill="none" xmlns="http://www.w3.org/2000/svg">
<path d="M14 11.25C16.4852 11.25 18.5 9.23528 18.5 6.75C18.5 4.26472 16.4852 2.25 14 2.25C11.5147 2.25 9.5 4.26472 9.5 6.75C9.5 9.23528 11.5147 11.25 14 11.25Z" fill="black"/>
<path d="M3.56875 6.54528C3.45573 6.09321 2.99763 5.81834 2.54556 5.93137C2.09348 6.04439 1.81862 6.50249 1.93164 6.95457L2.36136 8.67341C3.15421 11.8448 5.55804 14.3432 8.65645 15.276V20.3084C8.65642 21.3192 8.65638 22.162 8.74635 22.8312C8.8413 23.5375 9.05018 24.1751 9.56258 24.6876C10.075 25.1999 10.7126 25.4088 11.4189 25.5037C12.0881 25.5937 12.9309 25.5937 13.9417 25.5936H14.0587C15.0695 25.5937 15.9124 25.5937 16.5815 25.5037C17.2878 25.4088 17.9253 25.1999 18.4378 24.6876C18.9502 24.1751 19.1591 23.5375 19.2541 22.8312C19.344 22.162 19.344 21.3192 19.344 20.3085V15.5914C20.4477 15.9203 21.2909 16.8794 21.4315 18.0754L22.1622 24.286C22.2167 24.7488 22.6359 25.0798 23.0988 25.0254C23.5616 24.9709 23.8926 24.5517 23.8381 24.0888L23.1075 17.8783C22.8326 15.5419 20.8526 13.7811 18.5002 13.7811H9.59529C6.84641 13.1359 4.68452 11.0083 3.99847 8.26414L3.56875 6.54528Z" fill="black"/>
</svg>
